<svg xmlns="http://www.w3.org/2000/svg" xmlns:svg="http://www.w3.org/2000/svg" xmlns:xlink="http://www.w3.org/1999/xlink" version="1.0" height="1110pt" width="1319.9999999999995pt" viewBox="145 -143 1327.9999999999995 1116" ><defs><style type="text/css">
            @font-face {
                font-family: 'lt_regular';
                src: url('https://app.creately.com/diagram/assets/fonts/lato/lt-regular-webfont.woff2') format('woff2'),
                    url('https://app.creately.com/diagram/assets/fonts/lato/lt-regular-webfont.woff') format('woff');
                font-weight: normal;
                font-style: normal;
            }
            @font-face {
                font-family: 'noto_regular';
                src: url('https://app.creately.com/diagram/assets/fonts/noto/noto-regular.woff') format('woff'),
                     url('https://app.creately.com/diagram/assets/fonts/noto/noto-regular.woff2') format('woff2');
                font-weight: normal;
                font-style: normal;
            }
        p {
            margin: 0;
        }
        </style></defs><defs><style>
            span{ display: inline-block; }
        </style></defs><g id="TvCRWUmiJ3d"><g transform="translate(770 140)"><path d="M 119.99999999999993,34.99999999999998 L 59.999999999999964,69.99999999999996 L 0,34.99999999999998 L 59.999999999999964,0 L 119.99999999999993,34.99999999999998 L 119.99999999999993,34.99999999999998 Z" fill="rgb(129,40,33)" stroke="#812821" stroke-width="2" stroke-linecap="round" stroke-linejoin="round" stroke-dasharray="0 0"/></g><g transform="translate(804, 164.99999999999997) rotate(0, 26, 10)" width="52" height="20"><text text-decoration="none" x="0.5" fill="#fdf6f6" font-size="10pt" font-family="lt_regular"  y="15">Works&#160;</text><text text-decoration="none" x="41.5" fill="#fdf6f6" font-size="10pt" font-family="lt_regular"  y="15">in</text><text text-decoration="none" x="51.5" fill="#4b4b4b" font-size="10pt" font-family="noto_regular"  y="15"></text></g></g><g id="bvWwRmmolOh"><g transform="translate(1110 150)"><rect x="0" y="0" width="100" height="50" fill="rgb(53,98,96)" stroke="#356260" stroke-width="2" stroke-linecap="round" stroke-linejoin="round" stroke-dasharray="0 0"/></g><g transform="translate(1139.5, 165) rotate(0, 20.5, 10)" width="41" height="20"><text text-decoration="none" x="0" fill="#fdf6f6" font-size="10pt" font-family="lt_regular"  y="15">STORE</text><text text-decoration="none" x="41" fill="#4b4b4b" font-size="10pt" font-family="noto_regular"  y="15"></text></g></g><g id="4dORPMSeTVG"><g transform="translate(450 10)"><ellipse cx="49.99999999999997" cy="24.999999999999986" rx="49.99999999999997" ry="24.999999999999986" fill="rgb(94,101,58)" stroke="#5e653a" stroke-width="2" stroke-linecap="round" stroke-linejoin="round" stroke-dasharray="0 0"/></g><g transform="translate(484, 24.999999999999986) rotate(0, 16, 10)" width="32" height="20"><text text-decoration="none" x="0.5" fill="#fdf6f6" font-size="10pt" font-family="lt_regular"  y="15">name</text><text text-decoration="none" x="31.5" fill="#4b4b4b" font-size="10pt" font-family="noto_regular"  y="15"></text></g></g><g id="qgWL1QIJLrS"><g transform="translate(360 49.99999999999996)"><ellipse cx="49.99999999999997" cy="24.999999999999986" rx="49.99999999999997" ry="24.999999999999986" fill="rgb(94,101,58)" stroke="#5e653a" stroke-width="2" stroke-linecap="round" stroke-linejoin="round" stroke-dasharray="0 0"/></g><g transform="translate(383.5, 64.99999999999994) rotate(0, 26.5, 10)" width="53" height="20"><text text-decoration="none" x="0.5" fill="#fdf6f6" font-size="10pt" font-family="lt_regular"  y="15">birthdate</text><text text-decoration="none" x="52.5" fill="#4b4b4b" font-size="10pt" font-family="noto_regular"  y="15"></text></g></g><g id="R0MXKI2cvMX"><g transform="translate(550 49.999999999999986)"><ellipse cx="49.99999999999997" cy="24.999999999999986" rx="49.99999999999997" ry="24.999999999999986" fill="rgb(94,101,58)" stroke="#5e653a" stroke-width="2" stroke-linecap="round" stroke-linejoin="round" stroke-dasharray="0 0"/></g><g transform="translate(566, 64.99999999999997) rotate(0, 34, 10)" width="68" height="20"><text text-decoration="none" x="1.5" fill="#fdf6f6" font-size="10pt" font-family="lt_regular"  y="15">designation</text><text text-decoration="none" x="66.5" fill="#4b4b4b" font-size="10pt" font-family="noto_regular"  y="15"></text></g></g><g id="vVJFoR16IeB"><g transform="translate(560 -70)"><ellipse cx="49.99999999999997" cy="24.999999999999986" rx="49.99999999999997" ry="24.999999999999986" fill="rgb(94,101,58)" stroke="#5e653a" stroke-width="2" stroke-linecap="round" stroke-linejoin="round" stroke-dasharray="0 0"/></g><g transform="translate(592, -55.000000000000014) rotate(0, 18, 10)" width="36" height="20"><text text-decoration="none" x="1" fill="#fdf6f6" font-size="10pt" font-family="lt_regular"  y="15">lname</text><text text-decoration="none" x="35" fill="#4b4b4b" font-size="10pt" font-family="noto_regular"  y="15"></text></g></g><g id="98FSubVCt4D"><g transform="translate(450 -100)"><ellipse cx="49.99999999999997" cy="24.999999999999986" rx="49.99999999999997" ry="24.999999999999986" fill="rgb(94,101,58)" stroke="#5e653a" stroke-width="2" stroke-linecap="round" stroke-linejoin="round" stroke-dasharray="0 0"/></g><g transform="translate(485, -85.00000000000001) rotate(0, 15, 10)" width="30" height="20"><text text-decoration="none" x="0.5" fill="#fdf6f6" font-size="10pt" font-family="lt_regular"  y="15">minit</text><text text-decoration="none" x="29.5" fill="#4b4b4b" font-size="10pt" font-family="noto_regular"  y="15"></text></g></g><g id="8c3xCJdABhG"><g transform="translate(350 -70)"><ellipse cx="49.99999999999997" cy="24.999999999999986" rx="49.99999999999997" ry="24.999999999999986" fill="rgb(94,101,58)" stroke="#5e653a" stroke-width="2" stroke-linecap="round" stroke-linejoin="round" stroke-dasharray="0 0"/></g><g transform="translate(381.5, -55.000000000000014) rotate(0, 18.5, 10)" width="37" height="20"><text text-decoration="none" x="0.5" fill="#fdf6f6" font-size="10pt" font-family="lt_regular"  y="15">fname</text><text text-decoration="none" x="36.5" fill="#4b4b4b" font-size="10pt" font-family="noto_regular"  y="15"></text></g></g><g id="6sdvbpLU4fE"><g><path d="M 500,60 L 500,150" fill="none" stroke="#9A9A9A" stroke-width="2" stroke-linecap="round" stroke-linejoin="round"/></g></g><g id="RwiAWLXRwzi"><g><path d="M 580,98 L 500,150" fill="none" stroke="#9A9A9A" stroke-width="2" stroke-linecap="round" stroke-linejoin="round"/></g></g><g id="otqMaAoDVNQ"><g><path d="M 430,98 L 500,150" fill="none" stroke="#9A9A9A" stroke-width="2" stroke-linecap="round" stroke-linejoin="round"/></g></g><g id="MEQo9O67oKC"><g><path d="M 390,175 L 450,175" fill="none" stroke="#9A9A9A" stroke-width="2" stroke-linecap="round" stroke-linejoin="round"/></g></g><g id="07wo2nMPptE"><g><path d="M 500,-50 L 500,10" fill="none" stroke="#9A9A9A" stroke-width="2" stroke-linecap="round" stroke-linejoin="round"/></g></g><g id="Oq7FdmtMa2r"><g><path d="M 570,-30 L 500,10" fill="none" stroke="#9A9A9A" stroke-width="2" stroke-linecap="round" stroke-linejoin="round"/></g></g><g id="THE3laezQ57"><g><path d="M 440,-30 L 500,10" fill="none" stroke="#7E7E7E" stroke-width="2" stroke-linecap="round" stroke-linejoin="round"/></g></g><g id="kESdbKhv2lF"><g transform="translate(300 150)"><ellipse cx="49.99999999999997" cy="24.999999999999986" rx="49.99999999999997" ry="24.999999999999986" fill="rgb(164,183,98)" stroke="#a4b762" stroke-width="2" stroke-linecap="round" stroke-linejoin="round" stroke-dasharray="0 0"/></g><g transform="translate(340.5, 165) rotate(0, 9.5, 10)" width="19" height="20"><text text-decoration="underline" x="0" fill="rgb(0, 0, 0)" font-size="10pt" font-family="lt_regular"  y="15">ssn</text><text text-decoration="none" x="19" fill="#4b4b4b" font-size="10pt" font-family="noto_regular"  y="15"></text></g></g><g id="7buqKBYdv1K"><mask id="d09bd" x="532" y="157" width="256" height="36" maskUnits="userSpaceOnUse"><rect x="532" y="157" width="256" height="36" fill="white" /><rect x="610.6171811977679" y="162" width="16" height="26" fill="black" /></mask><g mask="url(#d09bd)"><path d="M 550,175 L 770,175" fill="none" stroke="#9A9A9A" stroke-width="4" stroke-linecap="round" stroke-linejoin="round"/></g><g transform="translate(613.6171811977679, 165)" width="10" height="20"><text text-decoration="none" x="0" fill="#4b4b4b" font-size="10pt" font-family="lt_regular"  y="15">N</text><text text-decoration="none" x="10" fill="#4b4b4b" font-size="10pt" font-family="noto_regular"  y="15"></text></g></g><g id="dwh5UaE8hiI"><mask id="0980f" x="872" y="157" width="256" height="36" maskUnits="userSpaceOnUse"><rect x="872" y="157" width="256" height="36" fill="white" /><rect x="1044.617177190622" y="162" width="14" height="26" fill="black" /></mask><g mask="url(#0980f)"><path d="M 890,175 L 1000,175 L 1110,175" fill="none" stroke="#9A9A9A" stroke-width="4" stroke-linecap="round" stroke-linejoin="round"/></g><g transform="translate(1047.617177190622, 165)" width="8" height="20"><text text-decoration="none" x="0" fill="#4b4b4b" font-size="10pt" font-family="lt_regular"  y="15">1</text><text text-decoration="none" x="8" fill="#4b4b4b" font-size="10pt" font-family="noto_regular"  y="15"></text></g></g><g id="Lib9x8WgfdT"><g transform="translate(1110 -20.000000000000014)"><ellipse cx="49.99999999999997" cy="24.999999999999986" rx="49.99999999999997" ry="24.999999999999986" fill="rgb(94,101,58)" stroke="#5e653a" stroke-width="2" stroke-linecap="round" stroke-linejoin="round" stroke-dasharray="0 0"/></g><g transform="translate(1136.5, -5.000000000000028) rotate(0, 23.5, 10)" width="47" height="20"><text text-decoration="none" x="0" fill="#fdf6f6" font-size="10pt" font-family="lt_regular"  y="15">Address</text><text text-decoration="none" x="47" fill="#4b4b4b" font-size="10pt" font-family="noto_regular"  y="15"></text></g></g><g id="GsHMstKvZp9"><g transform="translate(1210 40)"><ellipse cx="54.99999999999997" cy="27.499999999999986" rx="54.99999999999997" ry="27.499999999999986" fill="rgb(203,137,42)" stroke="#ffffff" stroke-width="2" stroke-linecap="round" stroke-linejoin="round" stroke-dasharray="0 0"/><ellipse cx="54.99999999999997" cy="27.499999999999986" rx="49.99999999999997" ry="22.499999999999986" fill="rgb(203,137,42)" stroke="#ffffff" stroke-width="2" stroke-linecap="round" stroke-linejoin="round" stroke-dasharray="0 0"/></g><g transform="translate(1232, 57.499999999999986) rotate(0, 33, 10)" width="66" height="20"><text text-decoration="none" x="1.5" fill="#fdf6f6" font-size="10pt" font-family="lt_regular"  y="15">phone&#160;</text><text text-decoration="none" x="39.5" fill="#fdf6f6" font-size="10pt" font-family="lt_regular"  y="15">num</text><text text-decoration="none" x="64.5" fill="#4b4b4b" font-size="10pt" font-family="noto_regular"  y="15"></text></g></g><g id="f46Djjp5f8v"><g transform="translate(1010 30.000000000000014)"><ellipse cx="49.99999999999997" cy="24.999999999999986" rx="49.99999999999997" ry="24.999999999999986" fill="rgb(164,183,98)" stroke="#a4b762" stroke-width="2" stroke-linecap="round" stroke-linejoin="round" stroke-dasharray="0 0"/></g><g transform="translate(1035.5, 45) rotate(0, 24.5, 10)" width="49" height="20"><text text-decoration="underline" x="0" fill="rgb(0, 0, 0)" font-size="10pt" font-family="lt_regular"  y="15">store&#160;</text><text text-decoration="underline" x="33" fill="rgb(0, 0, 0)" font-size="10pt" font-family="lt_regular"  y="15">ID&#160;</text><text text-decoration="none" x="50" fill="#4b4b4b" font-size="10pt" font-family="noto_regular"  y="15"></text></g></g><g id="N7epu2NOYCz"><g><path d="M 1160,150 L 1160,30" fill="none" stroke="#9A9A9A" stroke-width="2" stroke-linecap="round" stroke-linejoin="round"/></g></g><g id="zKdGOf2RYbQ"><g><path d="M 1240,88 L 1200,119 L 1160,150" fill="none" stroke="#9A9A9A" stroke-width="2" stroke-linecap="round" stroke-linejoin="round"/></g></g><g id="OerneewjRPM"><g><path d="M 1080,78 L 1160,150" fill="none" stroke="#9A9A9A" stroke-width="2" stroke-linecap="round" stroke-linejoin="round"/></g></g><g id="RmfcdlF0BPb"><g transform="translate(1040 -140)"><ellipse cx="49.99999999999997" cy="24.999999999999986" rx="49.99999999999997" ry="24.999999999999986" fill="rgb(94,101,58)" stroke="#5e653a" stroke-width="2" stroke-linecap="round" stroke-linejoin="round" stroke-dasharray="0 0"/></g><g transform="translate(1078.5, -125.00000000000001) rotate(0, 11.5, 10)" width="23" height="20"><text text-decoration="none" x="0" fill="#fdf6f6" font-size="10pt" font-family="lt_regular"  y="15">City</text><text text-decoration="none" x="24" fill="#4b4b4b" font-size="10pt" font-family="noto_regular"  y="15"></text></g></g><g id="CicB8JAITvP"><g transform="translate(1170 -140)"><ellipse cx="49.99999999999997" cy="24.999999999999986" rx="49.99999999999997" ry="24.999999999999986" fill="rgb(94,101,58)" stroke="#5e653a" stroke-width="2" stroke-linecap="round" stroke-linejoin="round" stroke-dasharray="0 0"/></g><g transform="translate(1205, -125.00000000000001) rotate(0, 15, 10)" width="30" height="20"><text text-decoration="none" x="0" fill="#fdf6f6" font-size="10pt" font-family="lt_regular"  y="15">State</text><text text-decoration="none" x="30" fill="#4b4b4b" font-size="10pt" font-family="noto_regular"  y="15"></text></g></g><g id="HBHIv4mIpo8"><g transform="translate(1230 -80)"><ellipse cx="49.99999999999997" cy="24.999999999999986" rx="49.99999999999997" ry="24.999999999999986" fill="rgb(94,101,58)" stroke="#5e653a" stroke-width="2" stroke-linecap="round" stroke-linejoin="round" stroke-dasharray="0 0"/></g><g transform="translate(1270, -65.00000000000001) rotate(0, 10, 10)" width="20" height="20"><text text-decoration="none" x="0" fill="#fdf6f6" font-size="10pt" font-family="lt_regular"  y="15">ZIP</text><text text-decoration="none" x="20" fill="#4b4b4b" font-size="10pt" font-family="noto_regular"  y="15"></text></g></g><g id="Kn84dsOCRmE"><g transform="translate(970 -80)"><ellipse cx="49.99999999999997" cy="24.999999999999986" rx="49.99999999999997" ry="24.999999999999986" fill="rgb(94,101,58)" stroke="#5e653a" stroke-width="2" stroke-linecap="round" stroke-linejoin="round" stroke-dasharray="0 0"/></g><g transform="translate(1002, -65.00000000000001) rotate(0, 18, 10)" width="36" height="20"><text text-decoration="none" x="0" fill="#fdf6f6" font-size="10pt" font-family="lt_regular"  y="15">Street</text><text text-decoration="none" x="36" fill="#4b4b4b" font-size="10pt" font-family="noto_regular"  y="15"></text></g></g><g id="ymuu0drIDVe"><g><path d="M 1090,-90 L 1125,-55 L 1160,-20" fill="none" stroke="#9A9A9A" stroke-width="2" stroke-linecap="round" stroke-linejoin="round"/></g></g><g id="1u5XP5H8vFE"><g><path d="M 1200,-92 L 1180,-56 L 1160,-20" fill="none" stroke="#9A9A9A" stroke-width="2" stroke-linecap="round" stroke-linejoin="round"/></g></g><g id="6pRT7CVuUoG"><g><path d="M 1240,-40 L 1160,-20" fill="none" stroke="#9A9A9A" stroke-width="2" stroke-linecap="round" stroke-linejoin="round"/></g></g><g id="Rz1CecBXozH"><g><path d="M 1060,-40 L 1160,-20" fill="none" stroke="#9A9A9A" stroke-width="2" stroke-linecap="round" stroke-linejoin="round"/></g></g><g id="8WIPEv8yncL"><g transform="translate(770 249.99999999999997)"><path d="M 119.99999999999993,34.99999999999998 L 59.999999999999964,69.99999999999996 L 0,34.99999999999998 L 59.999999999999964,0 L 119.99999999999993,34.99999999999998 L 119.99999999999993,34.99999999999998 Z" fill="rgb(129,40,33)" stroke="#812821" stroke-width="2" stroke-linecap="round" stroke-linejoin="round" stroke-dasharray="0 0"/></g><g transform="translate(804, 274.99999999999994) rotate(0, 26, 10)" width="52" height="20"><text text-decoration="none" x="0.5" fill="#fdf6f6" font-size="10pt" font-family="lt_regular"  y="15">Manages</text><text text-decoration="none" x="51.5" fill="#4b4b4b" font-size="10pt" font-family="noto_regular"  y="15"></text></g></g><g id="h79Hzmx8hKS"><mask id="612d3" x="872" y="176" width="253" height="127" maskUnits="userSpaceOnUse"><rect x="872" y="176" width="253" height="127" fill="white" /><rect x="1049.000017748936" y="180.90514927573096" width="14" height="26" fill="black" /></mask><g mask="url(#612d3)"><path d="M 1107,194 L 998.6635878248167,193.79851390714333 L 999,239 L 998.6635878248167,284.99999999999994 L 890,285" fill="none" stroke="#9A9A9A" stroke-width="4" stroke-linecap="round" stroke-linejoin="round"/></g><g transform="translate(1052.000017748936, 183.90514927573096)" width="8" height="20"><text text-decoration="none" x="0" fill="#4b4b4b" font-size="10pt" font-family="lt_regular"  y="15">1</text><text text-decoration="none" x="8" fill="#4b4b4b" font-size="10pt" font-family="noto_regular"  y="15"></text></g></g><g id="zQRsbo4nxiU"><mask id="a36b0" x="538" y="179" width="246" height="120" maskUnits="userSpaceOnUse"><rect x="538" y="179" width="246" height="120" fill="white" /><rect x="574.9999760574201" y="179.96209809738784" width="14" height="26" fill="black" /></mask><g mask="url(#a36b0)"><path d="M 770,285 L 660.7850438862143,284.99999999999994 L 661,239 L 660.7850438862143,192.86256121901084 L 552,193" fill="none" stroke="#9A9A9A" stroke-width="2" stroke-linecap="round" stroke-linejoin="round"/></g><g transform="translate(577.9999760574201, 182.96209809738784)" width="8" height="20"><text text-decoration="none" x="0" fill="#4b4b4b" font-size="10pt" font-family="lt_regular"  y="15">1</text><text text-decoration="none" x="8" fill="#4b4b4b" font-size="10pt" font-family="noto_regular"  y="15"></text></g></g><g id="1u416X5RjTX"><g transform="translate(1100 369.99999999999994)"><path d="M 119.99999999999996,34.999999999999986 L 59.99999999999998,69.99999999999997 L 0,34.999999999999986 L 59.99999999999998,0 L 119.99999999999996,34.999999999999986 L 119.99999999999996,34.999999999999986 Z" fill="rgb(129,40,33)" stroke="#812821" stroke-width="2" stroke-linecap="round" stroke-linejoin="round" stroke-dasharray="0 0"/></g><g transform="translate(1134.5, 394.9999999999999) rotate(0, 25.5, 10)" width="51" height="20"><text text-decoration="none" x="0.5" fill="#fdf6f6" font-size="10pt" font-family="lt_regular"  y="15">Contains</text><text text-decoration="none" x="50.5" fill="#4b4b4b" font-size="10pt" font-family="noto_regular"  y="15"></text></g></g><g id="cVcER1eiAyJ"><mask id="7a1bb" x="1142" y="182" width="36" height="206" maskUnits="userSpaceOnUse"><rect x="1142" y="182" width="36" height="206" fill="white" /><rect x="1153" y="233.62268580211185" width="14" height="26" fill="black" /></mask><g mask="url(#7a1bb)"><path d="M 1160,200 L 1160,370" fill="none" stroke="#9A9A9A" stroke-width="4" stroke-linecap="round" stroke-linejoin="round"/></g><g transform="translate(1156, 236.62268580211185)" width="8" height="20"><text text-decoration="none" x="0" fill="#4b4b4b" font-size="10pt" font-family="lt_regular"  y="15">1</text><text text-decoration="none" x="8" fill="#4b4b4b" font-size="10pt" font-family="noto_regular"  y="15"></text></g></g><g id="ITv71Z3ECqe"><g transform="translate(1110.0000000000002 650)"><rect x="0" y="0" width="99.99999999999997" height="49.999999999999986" fill="rgb(53,98,96)" stroke="#356260" stroke-width="2" stroke-linecap="round" stroke-linejoin="round" stroke-dasharray="0 0"/></g><g transform="translate(1128.5000000000002, 665) rotate(0, 31.5, 10)" width="63" height="20"><text text-decoration="none" x="0" fill="#fdf6f6" font-size="10pt" font-family="lt_regular"  y="15">PRODUCT</text><text text-decoration="none" x="63" fill="#4b4b4b" font-size="10pt" font-family="noto_regular"  y="15"></text></g></g><g id="3ZltLXTGCY6"><mask id="8501f" x="1146" y="426" width="28" height="238" maskUnits="userSpaceOnUse"><rect x="1146" y="426" width="28" height="238" fill="white" /><rect x="1152" y="608" width="16" height="24" fill="black" /></mask><g mask="url(#8501f)"><path d="M 1160,440 L 1160,545 Q 1160.0000000000002,554.9999999999998 1160.0000000000002,555 L 1160,650" fill="none" stroke="#9A9A9A" stroke-width="2" stroke-linecap="round" stroke-linejoin="round"/></g><g transform="translate(1155, 611)" width="10" height="18"><text text-decoration="none" x="0.5" fill="#4b4b4b" font-size="10pt" font-family="noto_regular"  y="15">N</text><text text-decoration="none" x="9.5" fill="#4b4b4b" font-size="10pt" font-family="noto_regular"  y="15"></text></g></g><g id="onOOO2bVWY5"><g transform="translate(1220 570)"><ellipse cx="50" cy="25" rx="50" ry="25" fill="rgb(164,183,98)" stroke="#a4b762" stroke-width="2" stroke-linecap="round" stroke-linejoin="round" stroke-dasharray="0 0"/></g><g transform="translate(1239, 585) rotate(0, 31, 10)" width="62" height="20"><text text-decoration="underline" x="0.5" fill="rgb(0, 0, 0)" font-size="10pt" font-family="lt_regular"  y="15">product&#160;</text><text text-decoration="underline" x="47.5" fill="rgb(0, 0, 0)" font-size="10pt" font-family="lt_regular"  y="15">ID</text><text text-decoration="none" x="61.5" fill="#4b4b4b" font-size="10pt" font-family="noto_regular"  y="15"></text></g></g><g id="oBjuWfnhajy"><g transform="translate(1320 600)"><ellipse cx="50" cy="25" rx="50" ry="25" fill="rgb(94,101,58)" stroke="#5e653a" stroke-width="2" stroke-linecap="round" stroke-linejoin="round" stroke-dasharray="0 0"/></g><g transform="translate(1343.5, 615) rotate(0, 26.5, 10)" width="53" height="20"><text text-decoration="none" x="1" fill="#fdf6f6" font-size="10pt" font-family="lt_regular"  y="15">exp_date</text><text text-decoration="none" x="52" fill="#4b4b4b" font-size="10pt" font-family="noto_regular"  y="15"></text></g></g><g id="PvhBN4atzrh"><g transform="translate(1369.9999999999995 650)"><ellipse cx="50" cy="25" rx="50" ry="25" fill="rgb(94,101,58)" stroke="#5e653a" stroke-width="2" stroke-linecap="round" stroke-linejoin="round" stroke-dasharray="0 0"/></g><g transform="translate(1389.4999999999995, 665) rotate(0, 30.5, 10)" width="61" height="20"><text text-decoration="none" x="0.5" fill="#fdf6f6" font-size="10pt" font-family="lt_regular"  y="15">manf_date</text><text text-decoration="none" x="60.5" fill="#4b4b4b" font-size="10pt" font-family="noto_regular"  y="15"></text></g></g><g id="8WZj5e7d3Lo"><g transform="translate(1320 700)"><ellipse cx="50" cy="25" rx="50" ry="25" fill="rgb(94,101,58)" stroke="#5e653a" stroke-width="2" stroke-linecap="round" stroke-linejoin="round" stroke-dasharray="0 0"/></g><g transform="translate(1339.5, 715) rotate(0, 30.5, 10)" width="61" height="20"><text text-decoration="none" x="1" fill="#fdf6f6" font-size="10pt" font-family="lt_regular"  y="15">availability</text><text text-decoration="none" x="60" fill="#4b4b4b" font-size="10pt" font-family="noto_regular"  y="15"></text></g></g><g id="aWckhx5JTnb"><g transform="translate(1220 729.9999999999999)"><ellipse cx="50" cy="25" rx="50" ry="25" fill="rgb(94,101,58)" stroke="#5e653a" stroke-width="2" stroke-linecap="round" stroke-linejoin="round" stroke-dasharray="0 0"/></g><g transform="translate(1255.5, 744.9999999999999) rotate(0, 14.5, 10)" width="29" height="20"><text text-decoration="none" x="0.5" fill="#fdf6f6" font-size="10pt" font-family="lt_regular"  y="15">price</text><text text-decoration="none" x="28.5" fill="#4b4b4b" font-size="10pt" font-family="noto_regular"  y="15"></text></g></g><g id="1ZgbbB3Zoqm"><g><path d="M 1370,675 L 1210,675" fill="none" stroke="#9A9A9A" stroke-width="2" stroke-linecap="round" stroke-linejoin="round"/></g></g><g id="j6n1hwU9Jbu"><g><path d="M 1330,640 L 1270,658 L 1210,675" fill="none" stroke="#9A9A9A" stroke-width="2" stroke-linecap="round" stroke-linejoin="round"/></g></g><g id="bQyOlkZ0zhR"><g><path d="M 1330,710 L 1270,693 L 1210,675" fill="none" stroke="#9A9A9A" stroke-width="2" stroke-linecap="round" stroke-linejoin="round"/></g></g><g id="B7RPY1fB9yC"><g><path d="M 1270,620 L 1210,675" fill="none" stroke="#9A9A9A" stroke-width="2" stroke-linecap="round" stroke-linejoin="round"/></g></g><g id="kbutv1oqnas"><g><path d="M 1270,730 L 1210,675" fill="none" stroke="#9A9A9A" stroke-width="2" stroke-linecap="round" stroke-linejoin="round"/></g></g><g id="dfIZhS7fCAa"><g transform="translate(770.0000000000001 640)"><path d="M 120,35 L 60,70 L 0,35 L 60,0 L 120,35 L 120,35 Z" fill="rgb(129,40,33)" stroke="#812821" stroke-width="2" stroke-linecap="round" stroke-linejoin="round" stroke-dasharray="0 0"/></g><g transform="translate(800.5000000000001, 665) rotate(0, 29.5, 10)" width="59" height="20"><text text-decoration="none" x="0.5" fill="#fdf6f6" font-size="10pt" font-family="lt_regular"  y="15">Purchases</text><text text-decoration="none" x="58.5" fill="#4b4b4b" font-size="10pt" font-family="noto_regular"  y="15"></text></g></g><g id="n5Yi7Oap0A3"><mask id="ccd72" x="876" y="661" width="248" height="28" maskUnits="userSpaceOnUse"><rect x="876" y="661" width="248" height="28" fill="white" /><rect x="1072" y="662" width="16" height="26" fill="black" /></mask><g mask="url(#ccd72)"><path d="M 1110,675 L 890,675" fill="none" stroke="#9A9A9A" stroke-width="2" stroke-linecap="round" stroke-linejoin="round"/></g><g transform="translate(1075, 665)" width="10" height="20"><text text-decoration="none" x="0" fill="#4b4b4b" font-size="10pt" font-family="lt_regular"  y="15">N</text><text text-decoration="none" x="10" fill="#4b4b4b" font-size="10pt" font-family="noto_regular"  y="15"></text></g></g><g id="4nTpRvgcaXk"><g transform="translate(450 650)"><rect x="0" y="0" width="100" height="50" fill="rgb(53,98,96)" stroke="#356260" stroke-width="2" stroke-linecap="round" stroke-linejoin="round" stroke-dasharray="0 0"/></g><g transform="translate(464, 665) rotate(0, 36, 10)" width="72" height="20"><text text-decoration="none" x="0" fill="#fdf6f6" font-size="10pt" font-family="lt_regular"  y="15">CUSTOMER</text><text text-decoration="none" x="72" fill="#4b4b4b" font-size="10pt" font-family="noto_regular"  y="15"></text></g></g><g id="FDo1RB3kGiD"><mask id="3fb18" x="532" y="657" width="256" height="36" maskUnits="userSpaceOnUse"><rect x="532" y="657" width="256" height="36" fill="white" /><rect x="624.2383014331316" y="662" width="14" height="26" fill="black" /></mask><g mask="url(#3fb18)"><path d="M 770,675 L 550,675" fill="none" stroke="#9A9A9A" stroke-width="4" stroke-linecap="round" stroke-linejoin="round"/></g><g transform="translate(627.2383014331316, 665)" width="8" height="20"><text text-decoration="none" x="0" fill="#4b4b4b" font-size="10pt" font-family="lt_regular"  y="15">1</text><text text-decoration="none" x="8" fill="#4b4b4b" font-size="10pt" font-family="noto_regular"  y="15"></text></g></g><g id="2f656JalPml"><g transform="translate(390 540)"><ellipse cx="50" cy="25" rx="50" ry="25" fill="rgb(164,183,98)" stroke="#a4b762" stroke-width="2" stroke-linecap="round" stroke-linejoin="round" stroke-dasharray="0 0"/></g><g transform="translate(406, 555) rotate(0, 34, 10)" width="68" height="20"><text text-decoration="underline" x="0.5" fill="rgb(0, 0, 0)" font-size="10pt" font-family="lt_regular"  y="15">customer&#160;</text><text text-decoration="underline" x="57.5" fill="rgb(0, 0, 0)" font-size="10pt" font-family="lt_regular"  y="15">id</text><text text-decoration="none" x="67.5" fill="#4b4b4b" font-size="10pt" font-family="noto_regular"  y="15"></text></g></g><g id="W3FmdfLJcPx"><g transform="translate(300 650)"><ellipse cx="50" cy="25" rx="50" ry="25" fill="rgb(94,101,58)" stroke="#5e653a" stroke-width="2" stroke-linecap="round" stroke-linejoin="round" stroke-dasharray="0 0"/></g><g transform="translate(326.5, 665) rotate(0, 23.5, 10)" width="47" height="20"><text text-decoration="none" x="0" fill="#fdf6f6" font-size="10pt" font-family="lt_regular"  y="15">Address</text><text text-decoration="none" x="47" fill="#4b4b4b" font-size="10pt" font-family="noto_regular"  y="15"></text></g></g><g id="qpEhJr06mRQ"><g transform="translate(509.9999999999999 540)"><ellipse cx="50" cy="25" rx="50" ry="25" fill="rgb(94,101,58)" stroke="#5e653a" stroke-width="2" stroke-linecap="round" stroke-linejoin="round" stroke-dasharray="0 0"/></g><g transform="translate(543.9999999999999, 555) rotate(0, 16, 10)" width="32" height="20"><text text-decoration="none" x="0.5" fill="#fdf6f6" font-size="10pt" font-family="lt_regular"  y="15">name</text><text text-decoration="none" x="31.5" fill="#4b4b4b" font-size="10pt" font-family="noto_regular"  y="15"></text></g></g><g id="UFrFvfcvlwp"><g transform="translate(229.9999999999999 549.9999999999999)"><ellipse cx="50" cy="25" rx="50" ry="25" fill="rgb(94,101,58)" stroke="#5e653a" stroke-width="2" stroke-linecap="round" stroke-linejoin="round" stroke-dasharray="0 0"/></g><g transform="translate(261.9999999999999, 564.9999999999999) rotate(0, 18, 10)" width="36" height="20"><text text-decoration="none" x="0" fill="#fdf6f6" font-size="10pt" font-family="lt_regular"  y="15">Street</text><text text-decoration="none" x="36" fill="#4b4b4b" font-size="10pt" font-family="noto_regular"  y="15"></text></g></g><g id="2ZLgKJDiVnx"><g transform="translate(150 600)"><ellipse cx="50" cy="25" rx="50" ry="25" fill="rgb(94,101,58)" stroke="#5e653a" stroke-width="2" stroke-linecap="round" stroke-linejoin="round" stroke-dasharray="0 0"/></g><g transform="translate(188.5, 615) rotate(0, 11.5, 10)" width="23" height="20"><text text-decoration="none" x="0" fill="#fdf6f6" font-size="10pt" font-family="lt_regular"  y="15">City</text><text text-decoration="none" x="24" fill="#4b4b4b" font-size="10pt" font-family="noto_regular"  y="15"></text></g></g><g id="cxViJIG1NQR"><g transform="translate(150 679.9999999999998)"><ellipse cx="50" cy="25" rx="50" ry="25" fill="rgb(94,101,58)" stroke="#5e653a" stroke-width="2" stroke-linecap="round" stroke-linejoin="round" stroke-dasharray="0 0"/></g><g transform="translate(185, 694.9999999999998) rotate(0, 15, 10)" width="30" height="20"><text text-decoration="none" x="0" fill="#fdf6f6" font-size="10pt" font-family="lt_regular"  y="15">State</text><text text-decoration="none" x="30" fill="#4b4b4b" font-size="10pt" font-family="noto_regular"  y="15"></text></g></g><g id="N27h9wGOl5s"><g transform="translate(210 740)"><ellipse cx="50" cy="25" rx="50" ry="25" fill="rgb(94,101,58)" stroke="#5e653a" stroke-width="2" stroke-linecap="round" stroke-linejoin="round" stroke-dasharray="0 0"/></g><g transform="translate(250, 755) rotate(0, 10, 10)" width="20" height="20"><text text-decoration="none" x="0" fill="#fdf6f6" font-size="10pt" font-family="lt_regular"  y="15">ZIP</text><text text-decoration="none" x="20" fill="#4b4b4b" font-size="10pt" font-family="noto_regular"  y="15"></text></g></g><g id="tEcJMazufZN"><g><path d="M 540,588 L 520,619 L 500,650" fill="none" stroke="#9A9A9A" stroke-width="2" stroke-linecap="round" stroke-linejoin="round"/></g></g><g id="PvgGM1qOVXO"><g><path d="M 440,590 L 470,620 L 500,650" fill="none" stroke="#9A9A9A" stroke-width="2" stroke-linecap="round" stroke-linejoin="round"/></g></g><g id="aaoHvo81TNf"><g><path d="M 400,675 L 450,675" fill="none" stroke="#9A9A9A" stroke-width="2" stroke-linecap="round" stroke-linejoin="round"/></g></g><g id="RddvfaeUnC1"><g><path d="M 260,598 L 300,675" fill="none" stroke="#9A9A9A" stroke-width="2" stroke-linecap="round" stroke-linejoin="round"/></g></g><g id="kL6VWOpgC3w"><g><path d="M 260,740 L 300,675" fill="none" stroke="#9A9A9A" stroke-width="2" stroke-linecap="round" stroke-linejoin="round"/></g></g><g id="mGBEQVTYAJ5"><g><path d="M 250,625 L 300,675" fill="none" stroke="#9A9A9A" stroke-width="2" stroke-linecap="round" stroke-linejoin="round"/></g></g><g id="E2hUCdfGxfP"><g><path d="M 250,705 L 300,675" fill="none" stroke="#9A9A9A" stroke-width="2" stroke-linecap="round" stroke-linejoin="round"/></g></g><g id="KNYSQNxPZnZ"><g transform="translate(1099.9999999999998 860)"><path d="M 120,35 L 60,70 L 0,35 L 60,0 L 120,35 L 120,35 Z" fill="rgb(129,40,33)" stroke="#812821" stroke-width="2" stroke-linecap="round" stroke-linejoin="round" stroke-dasharray="0 0"/></g><g transform="translate(1135.4999999999998, 885) rotate(0, 24.5, 10)" width="49" height="20"><text text-decoration="none" x="1" fill="#fdf6f6" font-size="10pt" font-family="lt_regular"  y="15">Supplies</text><text text-decoration="none" x="48" fill="#4b4b4b" font-size="10pt" font-family="noto_regular"  y="15"></text></g></g><g id="MK0aM8PvlMu"><mask id="20d10" x="1142" y="682" width="36" height="196" maskUnits="userSpaceOnUse"><rect x="1142" y="682" width="36" height="196" fill="white" /><rect x="1152" y="735.5740311109141" width="16" height="26" fill="black" /></mask><g mask="url(#20d10)"><path d="M 1160,700 L 1160,780 L 1160,860" fill="none" stroke="#9A9A9A" stroke-width="4" stroke-linecap="round" stroke-linejoin="round"/></g><g transform="translate(1155, 738.5740311109141)" width="10" height="20"><text text-decoration="none" x="0" fill="#4b4b4b" font-size="10pt" font-family="lt_regular"  y="15">N</text><text text-decoration="none" x="10" fill="#4b4b4b" font-size="10pt" font-family="noto_regular"  y="15"></text></g></g><g id="oZG0AbNHcdo"><g transform="translate(779.9999999999999 869.9999999999998)"><rect x="0" y="0" width="100" height="50" fill="rgb(53,98,96)" stroke="#356260" stroke-width="2" stroke-linecap="round" stroke-linejoin="round" stroke-dasharray="0 0"/></g><g transform="translate(799.9999999999999, 884.9999999999998) rotate(0, 30, 10)" width="60" height="20"><text text-decoration="none" x="0" fill="#fdf6f6" font-size="10pt" font-family="lt_regular"  y="15">SUPPLIER</text><text text-decoration="none" x="60" fill="#4b4b4b" font-size="10pt" font-family="noto_regular"  y="15"></text></g></g><g id="WLuTfkbbcRR"><mask id="6fa8e" x="866" y="881" width="248" height="28" maskUnits="userSpaceOnUse"><rect x="866" y="881" width="248" height="28" fill="white" /><rect x="903" y="881.9999999999999" width="14" height="26" fill="black" /></mask><g mask="url(#6fa8e)"><path d="M 1100,895 L 999.9999999999998,895 Q 999.9999999999995,895 990,895 Q 980.0000000000001,894.9999999999998 979.9999999999998,894.9999999999998 L 880,895" fill="none" stroke="#9A9A9A" stroke-width="2" stroke-linecap="round" stroke-linejoin="round"/></g><g transform="translate(906, 884.9999999999999)" width="8" height="20"><text text-decoration="none" x="0" fill="#4b4b4b" font-size="10pt" font-family="lt_regular"  y="15">1</text><text text-decoration="none" x="8" fill="#4b4b4b" font-size="10pt" font-family="noto_regular"  y="15"></text></g></g><g id="qX8kOSVfqW2"><g transform="translate(639.9999999999998 920)"><ellipse cx="50" cy="25" rx="50" ry="25" fill="rgb(94,101,58)" stroke="#5e653a" stroke-width="2" stroke-linecap="round" stroke-linejoin="round" stroke-dasharray="0 0"/></g><g transform="translate(673.9999999999998, 935) rotate(0, 16, 10)" width="32" height="20"><text text-decoration="none" x="0.5" fill="#fdf6f6" font-size="10pt" font-family="lt_regular"  y="15">name</text><text text-decoration="none" x="31.5" fill="#4b4b4b" font-size="10pt" font-family="noto_regular"  y="15"></text></g></g><g id="M7heMGb8kYr"><g><path d="M 730,860 L 780,895" fill="none" stroke="#9A9A9A" stroke-width="2" stroke-linecap="round" stroke-linejoin="round"/></g></g><g id="g3aO0L6gwuR"><g><path d="M 740,945 L 760,920 L 780,895" fill="none" stroke="#9A9A9A" stroke-width="2" stroke-linecap="round" stroke-linejoin="round"/></g></g><g id="v0vmE6QzRyk"><g transform="translate(639.9999999999998 820)"><ellipse cx="50" cy="25" rx="50" ry="25" fill="rgb(164,183,98)" stroke="#a4b762" stroke-width="2" stroke-linecap="round" stroke-linejoin="round" stroke-dasharray="0 0"/></g><g transform="translate(659.4999999999998, 835) rotate(0, 30.5, 10)" width="61" height="20"><text text-decoration="underline" x="1.5" fill="rgb(0, 0, 0)" font-size="10pt" font-family="lt_regular"  y="15">supplier&#160;</text><text text-decoration="underline" x="49.5" fill="rgb(0, 0, 0)" font-size="10pt" font-family="lt_regular"  y="15">id</text><text text-decoration="none" x="59.5" fill="#4b4b4b" font-size="10pt" font-family="noto_regular"  y="15"></text></g></g><g id="Jr7AVCgnZfR"><g transform="translate(440 330)"><path d="M 120,35 L 60,70 L 0,35 L 60,0 L 120,35 L 120,35 Z" fill="rgb(129,40,33)" stroke="#812821" stroke-width="2" stroke-linecap="round" stroke-linejoin="round" stroke-dasharray="0 0"/></g><g transform="translate(469, 355) rotate(0, 31, 10)" width="62" height="20"><text text-decoration="none" x="0" fill="#fdf6f6" font-size="10pt" font-family="lt_regular"  y="15">Supervises</text><text text-decoration="none" x="62" fill="#4b4b4b" font-size="10pt" font-family="noto_regular"  y="15"></text></g></g><g id="5Pi9s7SCimp"><g transform="translate(450 150)"><rect x="0" y="0" width="100" height="50" fill="rgb(53,98,96)" stroke="#356260" stroke-width="2" stroke-linecap="round" stroke-linejoin="round" stroke-dasharray="0 0"/></g><g transform="translate(466, 165) rotate(0, 34, 10)" width="68" height="20"><text text-decoration="none" x="0" fill="#fdf6f6" font-size="10pt" font-family="lt_regular"  y="15">EMPLOYEE</text><text text-decoration="none" x="69" fill="#4b4b4b" font-size="10pt" font-family="noto_regular"  y="15"></text></g></g><g id="51YaLVauNlZ"><g><path d="M 581,299 L 581,249.5 L 541,250 L 500,249.5 L 500,200" fill="none" stroke="#A8A8A8" stroke-width="2" stroke-linecap="round" stroke-linejoin="round"/><path d="M 494.25,200 L 500,210 L 505.75,200 M 494.25,210 L 505.75,210 Z" fill="none" stroke="#A8A8A8" stroke-width="2" stroke-linecap="round" stroke-linejoin="round"/></g></g><g id="yqzyzOep8iZ"><g><path d="M 581,294 L 581.0875533845292,365 L 560,365" fill="none" stroke="#A8A8A8" stroke-width="2" stroke-linecap="round" stroke-linejoin="round"/><path d="M 560,370.75 L 570,365 L 560,365 M 570,365 L 560,359.25" fill="none" stroke="#A8A8A8" stroke-width="2" stroke-linecap="round" stroke-linejoin="round"/><circle cx="575" cy="365" r="5.75" fill="rgb(255,255,255)" stroke="#A8A8A8" stroke-width="2" stroke-linecap="round" stroke-linejoin="round"/><path d="Z" fill="none" stroke="#A8A8A8" stroke-width="2" stroke-linecap="round" stroke-linejoin="round"/></g></g><g id="elKTphP7ybu"><mask id="83f39" x="406" y="188" width="89" height="191" maskUnits="userSpaceOnUse"><rect x="406" y="188" width="89" height="191" fill="white" /><rect x="474" y="230.99049906506843" width="14" height="26" fill="black" /></mask><g mask="url(#83f39)"><path d="M 440,365 L 420,365 L 420,338 L 420,310 L 451,310 L 481,310 L 481,202" fill="none" stroke="#7E7E7E" stroke-width="2" stroke-linecap="round" stroke-linejoin="round"/></g><g transform="translate(477, 233.99049906506843)" width="8" height="20"><text text-decoration="none" x="0" fill="#4b4b4b" font-size="10pt" font-family="lt_regular"  y="15">1</text><text text-decoration="none" x="8" fill="#4b4b4b" font-size="10pt" font-family="noto_regular"  y="15"></text></g></g></svg>